<?xml version="1.0" encoding="utf-8"?>
<!-- Generator: Adobe Illustrator 19.2.0, SVG Export Plug-In . SVG Version: 6.00 Build 0)  -->
<svg version="1.1" id="Layer_1" xmlns="http://www.w3.org/2000/svg" xmlns:xlink="http://www.w3.org/1999/xlink" x="0px" y="0px"
	 viewBox="0 0 170.3 5.8" style="enable-background:new 0 0 170.3 5.8;" xml:space="preserve">
<style type="text/css">
	.st0{fill:#FFFFFF;}
</style>
<path class="st0" d="M0.6,5.6c0.9,0,3-0.5,3.1-1c0.7,0.1,2.8-0.8,4.5-1.6c3.5,1.3,10,1.3,12,0.1c0.7,0.6,1.3,1.1,1.6,1.4
	c1.5-0.2,2.7-0.5,3.9-0.5C28,4,29.9,3.5,31.9,2.3c1.3-0.8,3-1,4.4-1.4c1.5,2.9,2.9,3.3,5.8,2.2c1.6-0.6,3.4-0.8,5.2-1.2
	c1.5-0.4,3-1.4,4.7-1c1.6,0.3,4.8,1.6,4.8,1.6s2.9-1.4,4.4-1.5c1.7-0.2,3.5,0,5.4,0c0.2,0.6,0.4,1.2,0.6,1.9c0.4,0,0.7,0.1,1,0.1
	c4.3-0.1,8.4,1.7,12.7,1.1c0.3,0,0.7,0.1,0.9,0.3c0.8,0.9,1.4,0.8,2.3,0.1c0.6-0.5,1.4-0.8,2.1-1.1c0.4-0.2,1.1-0.3,1.4-0.1
	c1.9,1.2,3.7,1.1,5.6,0c0.6-0.3,1.8-0.3,2.4,0.1c2.4,1.8,4.4,0.6,7,0.8c0.3,0,1.2-1.1,1.7-1.1c0.8,0.4-0.1,1.5,3,0.7
	c3.2-0.9,3.9,2.2,8.7-1.3c1-0.8,2.4-1,3.7-1.4c0.3-0.1,0.9,0.3,1.2,0.5c1.2,0.8,2.4,1.6,3.5,2.4c2.3-0.8,4.3-1.9,6.6-2.2
	c1.5-0.2,3.1-0.8,4.7-0.8c0.9,0.1,1.8,0.5,2.8,0.6c2.7,0.3,2.1,1,3.6,0.1c2.5-1.5,5-0.4,7.5-0.8c0.2,0.7,0.3,1.3,0.5,1.8
	c0.3,0.1,0.8,0.5,1.1,0.5c1.2,0,2.2-0.3,3.4-0.2c1.4,0,2.7,0.4,4,0.7c4.9,1.2,4.8,0.4,7.1-0.2c2.4-0.6,3.3-0.6,4.3,1.7
	c0.1,0.2,0.2,0.4,0.4,0.7V0L0,0l0,5.8C0,5.8,0.4,5.4,0.6,5.6z"/>
</svg>
